
<svg viewBox="0 0 280 181" fill="none" xmlns="http://www.w3.org/2000/svg">
<g filter="url(#filter0_d)">
<path d="M179.242 6.91625C181.195 3.74457 185.805 3.74456 187.758 6.91624L262.38 128.129C264.43 131.46 262.034 135.75 258.122 135.75H108.878C104.966 135.75 102.57 131.46 104.62 128.129L179.242 6.91625Z" fill="#F1F1E9"/>
<rect x="-22" y="4" width="209" height="132" rx="5" fill="#F1F1E9"/>
</g>
<path d="M87.0156 82H76.4688L55.9375 48.3203V82H45.3906V30.8125H55.9375L76.5039 64.5625V30.8125H87.0156V82ZM112.891 53.875L123.543 30.8125H135.074L118.27 63.4375V82H107.547V63.4375L90.7422 30.8125H102.309L112.891 53.875Z" fill="#FFA7C4"/>
<path d="M49.4961 91.375V95.9805H53.0469V98.4941H49.4961V110.289C49.4961 111.051 49.6543 111.625 49.9707 112.012C50.2871 112.387 50.8262 112.574 51.5879 112.574C51.9629 112.574 52.4785 112.504 53.1348 112.363V115C52.2793 115.234 51.4473 115.352 50.6387 115.352C49.1855 115.352 48.0898 114.912 47.3516 114.033C46.6133 113.154 46.2441 111.906 46.2441 110.289V98.4941H42.7812V95.9805H46.2441V91.375H49.4961ZM60.3945 115H57.1426V95.9805H60.3945V115ZM56.8789 90.9355C56.8789 90.4082 57.0371 89.9629 57.3535 89.5996C57.6816 89.2363 58.1621 89.0547 58.7949 89.0547C59.4277 89.0547 59.9082 89.2363 60.2363 89.5996C60.5645 89.9629 60.7285 90.4082 60.7285 90.9355C60.7285 91.4629 60.5645 91.9023 60.2363 92.2539C59.9082 92.6055 59.4277 92.7812 58.7949 92.7812C58.1621 92.7812 57.6816 92.6055 57.3535 92.2539C57.0371 91.9023 56.8789 91.4629 56.8789 90.9355ZM68.6738 95.9805L68.7617 98.0898C70.1562 96.4492 72.0371 95.6289 74.4043 95.6289C77.0645 95.6289 78.875 96.6484 79.8359 98.6875C80.4688 97.7734 81.2891 97.0352 82.2969 96.4727C83.3164 95.9102 84.5176 95.6289 85.9004 95.6289C90.0723 95.6289 92.1934 97.8379 92.2637 102.256V115H89.0117V102.449C89.0117 101.09 88.7012 100.076 88.0801 99.4082C87.459 98.7285 86.416 98.3887 84.9512 98.3887C83.7441 98.3887 82.7422 98.752 81.9453 99.4785C81.1484 100.193 80.6855 101.16 80.5566 102.379V115H77.2871V102.537C77.2871 99.7715 75.9336 98.3887 73.2266 98.3887C71.0938 98.3887 69.6348 99.2969 68.8496 101.113V115H65.5977V95.9805H68.6738ZM105.078 115.352C102.5 115.352 100.402 114.508 98.7852 112.82C97.168 111.121 96.3594 108.854 96.3594 106.018V105.42C96.3594 103.533 96.7168 101.852 97.4316 100.375C98.1582 98.8867 99.166 97.7266 100.455 96.8945C101.756 96.0508 103.162 95.6289 104.674 95.6289C107.146 95.6289 109.068 96.4434 110.439 98.0723C111.811 99.7012 112.496 102.033 112.496 105.068V106.422H99.6113C99.6582 108.297 100.203 109.814 101.246 110.975C102.301 112.123 103.637 112.697 105.254 112.697C106.402 112.697 107.375 112.463 108.172 111.994C108.969 111.525 109.666 110.904 110.264 110.131L112.25 111.678C110.656 114.127 108.266 115.352 105.078 115.352ZM104.674 98.3008C103.361 98.3008 102.26 98.7812 101.369 99.7422C100.479 100.691 99.9277 102.027 99.7168 103.75H109.244V103.504C109.15 101.852 108.705 100.574 107.908 99.6719C107.111 98.7578 106.033 98.3008 104.674 98.3008ZM127.35 109.955C127.35 109.076 127.016 108.396 126.348 107.916C125.691 107.424 124.537 107.002 122.885 106.65C121.244 106.299 119.938 105.877 118.965 105.385C118.004 104.893 117.289 104.307 116.82 103.627C116.363 102.947 116.135 102.139 116.135 101.201C116.135 99.6426 116.791 98.3242 118.104 97.2461C119.428 96.168 121.115 95.6289 123.166 95.6289C125.322 95.6289 127.068 96.1855 128.404 97.2988C129.752 98.4121 130.426 99.8359 130.426 101.57H127.156C127.156 100.68 126.775 99.9121 126.014 99.2676C125.264 98.623 124.314 98.3008 123.166 98.3008C121.982 98.3008 121.057 98.5586 120.389 99.0742C119.721 99.5898 119.387 100.264 119.387 101.096C119.387 101.881 119.697 102.473 120.318 102.871C120.939 103.27 122.059 103.65 123.676 104.014C125.305 104.377 126.623 104.811 127.631 105.314C128.639 105.818 129.383 106.428 129.863 107.143C130.355 107.846 130.602 108.707 130.602 109.727C130.602 111.426 129.922 112.791 128.562 113.822C127.203 114.842 125.439 115.352 123.271 115.352C121.748 115.352 120.4 115.082 119.229 114.543C118.057 114.004 117.137 113.254 116.469 112.293C115.812 111.32 115.484 110.271 115.484 109.146H118.736C118.795 110.236 119.229 111.104 120.037 111.748C120.857 112.381 121.936 112.697 123.271 112.697C124.502 112.697 125.486 112.451 126.225 111.959C126.975 111.455 127.35 110.787 127.35 109.955Z" fill="#FFA7C4"/>
<defs>
<filter id="filter0_d" x="-26" y="2" width="301.13" height="148" filterUnits="userSpaceOnUse" color-interpolation-filters="sRGB">
<feFlood flood-opacity="0" result="BackgroundImageFix"/>
<feColorMatrix in="SourceAlpha" type="matrix" values="0 0 0 0 0 0 0 0 0 0 0 0 0 0 0 0 0 0 127 0"/>
<feOffset dx="4" dy="6"/>
<feGaussianBlur stdDeviation="4"/>
<feColorMatrix type="matrix" values="0 0 0 0 0 0 0 0 0 0 0 0 0 0 0 0 0 0 0.25 0"/>
<feBlend mode="normal" in2="BackgroundImageFix" result="effect1_dropShadow"/>
<feBlend mode="normal" in="SourceGraphic" in2="effect1_dropShadow" result="shape"/>
</filter>
</defs>
</svg>
